<svg width="51" height="30" viewBox="0 0 51 30" fill="none" xmlns="http://www.w3.org/2000/svg">
<path d="M47.143 3.35074C45.1962 1.39162 42.605 0.216284 39.8572 0.0459175C37.1095 -0.124449 34.3946 0.721905 32.2236 2.4257C30.2412 0.875371 27.8021 0.033561 25.2916 0.0330714C22.781 0.0325817 20.3419 0.873442 18.3587 2.423C16.097 0.636681 13.2433 -0.213379 10.38 0.0463637C7.51676 0.306105 4.85997 1.65606 2.95203 3.82063C1.04409 5.9852 0.0288868 8.80114 0.113679 11.6936C0.198471 14.586 1.37686 17.3369 3.40828 19.3844L10.3458 26.3684C10.3512 26.3736 10.3566 26.3787 10.3626 26.3841C10.3687 26.3895 10.3704 26.3921 10.3742 26.3959C10.3814 26.4032 10.3892 26.4098 10.3964 26.4171C10.5067 26.5269 10.6186 26.6339 10.7322 26.7382C10.7907 26.7921 10.8498 26.8444 10.9092 26.8969C10.9574 26.9392 11.0059 26.9811 11.0546 27.0225C13.0322 28.7091 15.5263 29.6595 18.1178 29.7136C20.7094 29.7679 23.2405 28.9228 25.2861 27.3201C27.4571 29.0238 30.172 29.8703 32.9196 29.6999C35.6675 29.5296 38.2586 28.3542 40.2055 26.3951L47.1432 19.4121C49.2561 17.2806 50.4426 14.3924 50.4426 11.3814C50.4426 8.37033 49.2559 5.48225 47.143 3.35074ZM25.2894 2.99107C26.9389 2.99001 28.5516 3.48153 29.9233 4.40341C31.2952 5.32529 32.3643 6.63608 32.9957 8.16989C33.6271 9.7037 33.7921 11.3916 33.4701 13.0198C33.148 14.6481 32.3532 16.1437 31.1864 17.3171L25.2894 23.2525L19.3923 17.3171C18.2254 16.1437 17.4307 14.6481 17.1086 13.0198C16.7865 11.3915 16.9516 9.70363 17.583 8.16982C18.2143 6.63599 19.2836 5.3252 20.6554 4.40334C22.0273 3.48148 23.64 2.98997 25.2894 2.99107ZM10.0118 18.3647C10.0088 17.2618 10.2232 16.1694 10.6425 15.1506C11.0618 14.1317 11.6777 13.2067 12.4546 12.4291L14.0241 10.8493C13.9481 12.4284 14.2013 14.006 14.7674 15.4807C15.3334 16.9554 16.1999 18.2945 17.3109 19.4121L23.0873 25.2263C21.8414 26.1047 20.3798 26.6221 18.8618 26.7218C17.344 26.8215 15.8279 26.5001 14.4791 25.7922C13.1302 25.0842 12.0003 24.0173 11.2126 22.7074C10.4248 21.3977 10.0093 19.8953 10.0115 18.3642L10.0118 18.3647ZM5.4893 17.2892C4.01321 15.8038 3.14425 13.8152 3.05406 11.7162C2.96387 9.61728 3.659 7.56058 5.00215 5.95245C6.3453 4.3443 8.2388 3.30166 10.3086 3.03047C12.3784 2.75928 14.4739 3.27928 16.1813 4.48773L10.3732 10.3339C9.32219 11.3861 8.48895 12.6376 7.9217 14.0161C7.35447 15.3946 7.06449 16.8726 7.06857 18.3647C7.06857 18.5408 7.07265 18.7162 7.08083 18.8912L5.4893 17.2892ZM32.2275 26.7587C30.5236 26.7627 28.86 26.2374 27.4638 25.2544L33.2686 19.4121C34.3797 18.2945 35.246 16.9554 35.812 15.4807C36.3781 14.006 36.6313 12.4284 36.5554 10.8493L38.1249 12.4291C39.2913 13.6031 40.0854 15.0988 40.4071 16.7271C40.729 18.3554 40.5638 20.0432 39.9324 21.5771C39.3012 23.1109 38.2322 24.4218 36.8609 25.3441C35.4893 26.2665 33.8769 26.7587 32.2275 26.7587ZM45.062 17.3171L43.4982 18.8912C43.5061 18.7164 43.5101 18.541 43.5104 18.3647C43.5145 16.8726 43.2245 15.3946 42.6572 14.0161C42.09 12.6376 41.2566 11.3861 40.2056 10.3339L34.4015 4.49162C36.1119 3.29358 38.206 2.78351 40.2714 3.06184C42.3368 3.34014 44.2239 4.38669 45.561 5.9954C46.8982 7.6041 47.5885 9.65839 47.4961 11.7538C47.4038 13.8492 46.5355 15.8339 45.062 17.3171Z" fill="#025595"/>
</svg>
